<svg id="visual" viewBox="0 0 1280 100" width="1280" height="100" xmlns="http://www.w3.org/2000/svg" xmlns:xlink="http://www.w3.org/1999/xlink" version="1.1"><rect x="0" y="0" width="1280" height="100" fill="#ffffff"></rect><path d="M0 67L11.8 69.5C23.7 72 47.3 77 71 79.3C94.7 81.7 118.3 81.3 142 80C165.7 78.7 189.3 76.3 213 74.7C236.7 73 260.3 72 284.2 73C308 74 332 77 355.8 79.7C379.7 82.3 403.3 84.7 427 81.5C450.7 78.3 474.3 69.7 498 65.5C521.7 61.3 545.3 61.7 569 63.7C592.7 65.7 616.3 69.3 640 70.8C663.7 72.3 687.3 71.7 711 73.3C734.7 75 758.3 79 782 79.7C805.7 80.3 829.3 77.7 853 74.5C876.7 71.3 900.3 67.7 924.2 67.8C948 68 972 72 995.8 72.8C1019.7 73.7 1043.3 71.3 1067 69.7C1090.7 68 1114.3 67 1138 66.7C1161.7 66.3 1185.3 66.7 1209 66.7C1232.7 66.7 1256.3 66.3 1268.2 66.2L1280 66L1280 0L1268.2 0C1256.3 0 1232.7 0 1209 0C1185.3 0 1161.7 0 1138 0C1114.3 0 1090.7 0 1067 0C1043.3 0 1019.7 0 995.8 0C972 0 948 0 924.2 0C900.3 0 876.7 0 853 0C829.3 0 805.7 0 782 0C758.3 0 734.7 0 711 0C687.3 0 663.7 0 640 0C616.3 0 592.7 0 569 0C545.3 0 521.7 0 498 0C474.3 0 450.7 0 427 0C403.3 0 379.7 0 355.8 0C332 0 308 0 284.2 0C260.3 0 236.7 0 213 0C189.3 0 165.7 0 142 0C118.3 0 94.7 0 71 0C47.3 0 23.7 0 11.8 0L0 0Z" fill="#10f3ec"></path><path d="M0 57L11.8 60.3C23.7 63.7 47.3 70.3 71 69.8C94.7 69.3 118.3 61.7 142 60.3C165.7 59 189.3 64 213 67.7C236.7 71.3 260.3 73.7 284.2 70.3C308 67 332 58 355.8 58.8C379.7 59.7 403.3 70.3 427 72.3C450.7 74.3 474.3 67.7 498 67.7C521.7 67.7 545.3 74.3 569 73.8C592.7 73.3 616.3 65.7 640 65.5C663.7 65.3 687.3 72.7 711 72.3C734.7 72 758.3 64 782 59.5C805.7 55 829.3 54 853 53.8C876.7 53.7 900.3 54.3 924.2 58.3C948 62.3 972 69.7 995.8 73.8C1019.7 78 1043.3 79 1067 78.5C1090.7 78 1114.3 76 1138 74.8C1161.7 73.7 1185.3 73.3 1209 69C1232.7 64.7 1256.3 56.3 1268.2 52.2L1280 48L1280 0L1268.2 0C1256.3 0 1232.7 0 1209 0C1185.3 0 1161.7 0 1138 0C1114.3 0 1090.7 0 1067 0C1043.3 0 1019.7 0 995.8 0C972 0 948 0 924.2 0C900.3 0 876.7 0 853 0C829.3 0 805.7 0 782 0C758.3 0 734.7 0 711 0C687.3 0 663.7 0 640 0C616.3 0 592.7 0 569 0C545.3 0 521.7 0 498 0C474.3 0 450.7 0 427 0C403.3 0 379.7 0 355.8 0C332 0 308 0 284.2 0C260.3 0 236.7 0 213 0C189.3 0 165.7 0 142 0C118.3 0 94.7 0 71 0C47.3 0 23.7 0 11.8 0L0 0Z" fill="#5df3ed"></path><path d="M0 54L11.8 55C23.7 56 47.3 58 71 55.8C94.7 53.7 118.3 47.3 142 45.3C165.7 43.3 189.3 45.7 213 48.2C236.7 50.7 260.3 53.3 284.2 51.7C308 50 332 44 355.8 43.8C379.7 43.7 403.3 49.3 427 52.8C450.7 56.3 474.3 57.7 498 55.2C521.7 52.7 545.3 46.3 569 44.2C592.7 42 616.3 44 640 44.3C663.7 44.7 687.3 43.3 711 45.3C734.7 47.3 758.3 52.7 782 52.3C805.7 52 829.3 46 853 44.5C876.7 43 900.3 46 924.2 47.5C948 49 972 49 995.8 51.7C1019.7 54.3 1043.3 59.7 1067 59.7C1090.7 59.7 1114.3 54.3 1138 50.2C1161.7 46 1185.3 43 1209 45.3C1232.7 47.7 1256.3 55.3 1268.2 59.2L1280 63L1280 0L1268.2 0C1256.3 0 1232.7 0 1209 0C1185.3 0 1161.7 0 1138 0C1114.3 0 1090.7 0 1067 0C1043.3 0 1019.7 0 995.8 0C972 0 948 0 924.2 0C900.3 0 876.7 0 853 0C829.3 0 805.7 0 782 0C758.3 0 734.7 0 711 0C687.3 0 663.7 0 640 0C616.3 0 592.7 0 569 0C545.3 0 521.7 0 498 0C474.3 0 450.7 0 427 0C403.3 0 379.7 0 355.8 0C332 0 308 0 284.2 0C260.3 0 236.7 0 213 0C189.3 0 165.7 0 142 0C118.3 0 94.7 0 71 0C47.3 0 23.7 0 11.8 0L0 0Z" fill="#82f2ed"></path><path d="M0 47L11.8 46.7C23.7 46.3 47.3 45.7 71 46.5C94.7 47.3 118.3 49.7 142 50.8C165.7 52 189.3 52 213 50C236.7 48 260.3 44 284.2 41.2C308 38.3 332 36.7 355.8 37C379.7 37.3 403.3 39.7 427 39.2C450.7 38.7 474.3 35.3 498 34.8C521.7 34.3 545.3 36.7 569 39.7C592.7 42.7 616.3 46.3 640 47.7C663.7 49 687.3 48 711 46.7C734.7 45.3 758.3 43.7 782 41.8C805.7 40 829.3 38 853 37.5C876.7 37 900.3 38 924.2 40.5C948 43 972 47 995.8 47.3C1019.7 47.7 1043.3 44.3 1067 44.7C1090.7 45 1114.3 49 1138 48.8C1161.7 48.7 1185.3 44.3 1209 41.3C1232.7 38.3 1256.3 36.7 1268.2 35.8L1280 35L1280 0L1268.2 0C1256.3 0 1232.7 0 1209 0C1185.3 0 1161.7 0 1138 0C1114.3 0 1090.7 0 1067 0C1043.3 0 1019.7 0 995.8 0C972 0 948 0 924.2 0C900.3 0 876.7 0 853 0C829.3 0 805.7 0 782 0C758.3 0 734.7 0 711 0C687.3 0 663.7 0 640 0C616.3 0 592.7 0 569 0C545.3 0 521.7 0 498 0C474.3 0 450.7 0 427 0C403.3 0 379.7 0 355.8 0C332 0 308 0 284.2 0C260.3 0 236.7 0 213 0C189.3 0 165.7 0 142 0C118.3 0 94.7 0 71 0C47.3 0 23.7 0 11.8 0L0 0Z" fill="#9ef1ed"></path><path d="M0 44L11.8 41.5C23.7 39 47.3 34 71 33.8C94.7 33.7 118.3 38.3 142 37.5C165.7 36.7 189.3 30.3 213 29.8C236.7 29.3 260.3 34.7 284.2 34.5C308 34.3 332 28.7 355.8 26.3C379.7 24 403.3 25 427 27.5C450.7 30 474.3 34 498 33.2C521.7 32.3 545.3 26.7 569 27.3C592.7 28 616.3 35 640 38.2C663.7 41.3 687.3 40.7 711 38.2C734.7 35.7 758.3 31.3 782 30C805.7 28.7 829.3 30.3 853 31.5C876.7 32.7 900.3 33.3 924.2 33.2C948 33 972 32 995.8 34C1019.7 36 1043.3 41 1067 42.7C1090.7 44.3 1114.3 42.7 1138 42.2C1161.7 41.7 1185.3 42.3 1209 41.7C1232.7 41 1256.3 39 1268.2 38L1280 37L1280 0L1268.2 0C1256.3 0 1232.7 0 1209 0C1185.3 0 1161.7 0 1138 0C1114.3 0 1090.7 0 1067 0C1043.3 0 1019.7 0 995.8 0C972 0 948 0 924.2 0C900.3 0 876.7 0 853 0C829.3 0 805.7 0 782 0C758.3 0 734.7 0 711 0C687.3 0 663.7 0 640 0C616.3 0 592.7 0 569 0C545.3 0 521.7 0 498 0C474.3 0 450.7 0 427 0C403.3 0 379.7 0 355.8 0C332 0 308 0 284.2 0C260.3 0 236.7 0 213 0C189.3 0 165.7 0 142 0C118.3 0 94.7 0 71 0C47.3 0 23.7 0 11.8 0L0 0Z" fill="#b7f0ed"></path><path d="M0 19L11.8 20C23.7 21 47.3 23 71 23.3C94.7 23.7 118.3 22.3 142 23.7C165.7 25 189.3 29 213 27.3C236.7 25.7 260.3 18.3 284.2 15.7C308 13 332 15 355.8 16.3C379.7 17.7 403.3 18.3 427 19.7C450.7 21 474.3 23 498 22.3C521.7 21.7 545.3 18.3 569 17.7C592.7 17 616.3 19 640 19.5C663.7 20 687.3 19 711 18.8C734.7 18.7 758.3 19.3 782 21.5C805.7 23.7 829.3 27.3 853 27.7C876.7 28 900.3 25 924.2 22C948 19 972 16 995.8 14.3C1019.7 12.7 1043.3 12.3 1067 12.5C1090.7 12.7 1114.3 13.3 1138 13.5C1161.7 13.7 1185.3 13.3 1209 16.2C1232.7 19 1256.3 25 1268.2 28L1280 31L1280 0L1268.2 0C1256.3 0 1232.7 0 1209 0C1185.3 0 1161.7 0 1138 0C1114.3 0 1090.7 0 1067 0C1043.3 0 1019.7 0 995.8 0C972 0 948 0 924.2 0C900.3 0 876.7 0 853 0C829.3 0 805.7 0 782 0C758.3 0 734.7 0 711 0C687.3 0 663.7 0 640 0C616.3 0 592.7 0 569 0C545.3 0 521.7 0 498 0C474.3 0 450.7 0 427 0C403.3 0 379.7 0 355.8 0C332 0 308 0 284.2 0C260.3 0 236.7 0 213 0C189.3 0 165.7 0 142 0C118.3 0 94.7 0 71 0C47.3 0 23.7 0 11.8 0L0 0Z" fill="#cdefed"></path><path d="M0 4L11.8 4C23.7 4 47.3 4 71 3.8C94.7 3.7 118.3 3.3 142 3.3C165.7 3.3 189.3 3.7 213 4.7C236.7 5.7 260.3 7.3 284.2 9.8C308 12.3 332 15.7 355.8 16.5C379.7 17.3 403.3 15.7 427 13.3C450.7 11 474.3 8 498 7.7C521.7 7.3 545.3 9.7 569 11.5C592.7 13.3 616.3 14.7 640 15.3C663.7 16 687.3 16 711 14.2C734.7 12.3 758.3 8.7 782 7.2C805.7 5.7 829.3 6.3 853 7.3C876.7 8.3 900.3 9.7 924.2 11.5C948 13.3 972 15.7 995.8 15C1019.7 14.3 1043.3 10.7 1067 11.2C1090.7 11.7 1114.3 16.3 1138 16.5C1161.7 16.7 1185.3 12.3 1209 10.3C1232.7 8.3 1256.3 8.7 1268.2 8.8L1280 9L1280 0L1268.2 0C1256.3 0 1232.7 0 1209 0C1185.3 0 1161.7 0 1138 0C1114.3 0 1090.7 0 1067 0C1043.3 0 1019.7 0 995.8 0C972 0 948 0 924.2 0C900.3 0 876.7 0 853 0C829.3 0 805.7 0 782 0C758.3 0 734.7 0 711 0C687.3 0 663.7 0 640 0C616.3 0 592.7 0 569 0C545.3 0 521.7 0 498 0C474.3 0 450.7 0 427 0C403.3 0 379.7 0 355.8 0C332 0 308 0 284.2 0C260.3 0 236.7 0 213 0C189.3 0 165.7 0 142 0C118.3 0 94.7 0 71 0C47.3 0 23.7 0 11.8 0L0 0Z" fill="#e1eeed"></path></svg>