<svg id="visual" viewBox="0 0 900 600" width="900" height="600" xmlns="http://www.w3.org/2000/svg" xmlns:xlink="http://www.w3.org/1999/xlink" version="1.1"><rect x="0" y="0" width="900" height="600" fill="#ffffff"></rect><path d="M0 440L18.8 434.8C37.7 429.7 75.3 419.3 112.8 414.2C150.3 409 187.7 409 225.2 413.3C262.7 417.7 300.3 426.3 337.8 419C375.3 411.7 412.7 388.3 450.2 390.8C487.7 393.3 525.3 421.7 562.8 434.8C600.3 448 637.7 446 675.2 438.2C712.7 430.3 750.3 416.7 787.8 409.8C825.3 403 862.7 403 881.3 403L900 403L900 601L881.3 601C862.7 601 825.3 601 787.8 601C750.3 601 712.7 601 675.2 601C637.7 601 600.3 601 562.8 601C525.3 601 487.7 601 450.2 601C412.7 601 375.3 601 337.8 601C300.3 601 262.7 601 225.2 601C187.7 601 150.3 601 112.8 601C75.3 601 37.7 601 18.8 601L0 601Z" fill="#fafafa"></path><path d="M0 430L18.8 427.7C37.7 425.3 75.3 420.7 112.8 422.7C150.3 424.7 187.7 433.3 225.2 441.5C262.7 449.7 300.3 457.3 337.8 456.2C375.3 455 412.7 445 450.2 439.3C487.7 433.7 525.3 432.3 562.8 434.3C600.3 436.3 637.7 441.7 675.2 445.7C712.7 449.7 750.3 452.3 787.8 450.5C825.3 448.7 862.7 442.3 881.3 439.2L900 436L900 601L881.3 601C862.7 601 825.3 601 787.8 601C750.3 601 712.7 601 675.2 601C637.7 601 600.3 601 562.8 601C525.3 601 487.7 601 450.2 601C412.7 601 375.3 601 337.8 601C300.3 601 262.7 601 225.2 601C187.7 601 150.3 601 112.8 601C75.3 601 37.7 601 18.8 601L0 601Z" fill="#e7e7e7"></path><path d="M0 467L18.8 471.2C37.7 475.3 75.3 483.7 112.8 485.3C150.3 487 187.7 482 225.2 475.5C262.7 469 300.3 461 337.8 466C375.3 471 412.7 489 450.2 494.5C487.7 500 525.3 493 562.8 487.3C600.3 481.7 637.7 477.3 675.2 480.5C712.7 483.7 750.3 494.3 787.8 490C825.3 485.7 862.7 466.3 881.3 456.7L900 447L900 601L881.3 601C862.7 601 825.3 601 787.8 601C750.3 601 712.7 601 675.2 601C637.7 601 600.3 601 562.8 601C525.3 601 487.7 601 450.2 601C412.7 601 375.3 601 337.8 601C300.3 601 262.7 601 225.2 601C187.7 601 150.3 601 112.8 601C75.3 601 37.7 601 18.8 601L0 601Z" fill="#d5d5d5"></path><path d="M0 514L18.8 515.7C37.7 517.3 75.3 520.7 112.8 521.5C150.3 522.3 187.7 520.7 225.2 517.2C262.7 513.7 300.3 508.3 337.8 505.7C375.3 503 412.7 503 450.2 501C487.7 499 525.3 495 562.8 494.5C600.3 494 637.7 497 675.2 502.8C712.7 508.7 750.3 517.3 787.8 523.7C825.3 530 862.7 534 881.3 536L900 538L900 601L881.3 601C862.7 601 825.3 601 787.8 601C750.3 601 712.7 601 675.2 601C637.7 601 600.3 601 562.8 601C525.3 601 487.7 601 450.2 601C412.7 601 375.3 601 337.8 601C300.3 601 262.7 601 225.2 601C187.7 601 150.3 601 112.8 601C75.3 601 37.7 601 18.8 601L0 601Z" fill="#c3c3c3"></path><path d="M0 535L18.8 536.2C37.7 537.3 75.3 539.7 112.8 544C150.3 548.3 187.7 554.7 225.2 555C262.7 555.3 300.3 549.7 337.8 547.5C375.3 545.3 412.7 546.7 450.2 550.5C487.7 554.3 525.3 560.7 562.8 563.2C600.3 565.7 637.7 564.3 675.2 561C712.7 557.7 750.3 552.3 787.8 548.5C825.3 544.7 862.7 542.3 881.3 541.2L900 540L900 601L881.3 601C862.7 601 825.3 601 787.8 601C750.3 601 712.7 601 675.2 601C637.7 601 600.3 601 562.8 601C525.3 601 487.7 601 450.2 601C412.7 601 375.3 601 337.8 601C300.3 601 262.7 601 225.2 601C187.7 601 150.3 601 112.8 601C75.3 601 37.7 601 18.8 601L0 601Z" fill="#b1b1b1"></path></svg>