<svg id="visual" viewBox="0 0 960 100" width="960" height="100" xmlns="http://www.w3.org/2000/svg" xmlns:xlink="http://www.w3.org/1999/xlink" version="1.1"><rect x="0" y="0" width="960" height="100" fill="#ffffff"></rect><path d="M0 62L11.5 66.3C23 70.7 46 79.3 68.8 83.8C91.7 88.3 114.3 88.7 137.2 88.5C160 88.3 183 87.7 205.8 83.7C228.7 79.7 251.3 72.3 274.2 72.5C297 72.7 320 80.3 342.8 80.5C365.7 80.7 388.3 73.3 411.2 73.3C434 73.3 457 80.7 480 80C503 79.3 526 70.7 548.8 71C571.7 71.3 594.3 80.7 617.2 85.3C640 90 663 90 685.8 90C708.7 90 731.3 90 754.2 86.5C777 83 800 76 822.8 76.2C845.7 76.3 868.3 83.7 891.2 85.2C914 86.7 937 82.3 948.5 80.2L960 78L960 0L948.5 0C937 0 914 0 891.2 0C868.3 0 845.7 0 822.8 0C800 0 777 0 754.2 0C731.3 0 708.7 0 685.8 0C663 0 640 0 617.2 0C594.3 0 571.7 0 548.8 0C526 0 503 0 480 0C457 0 434 0 411.2 0C388.3 0 365.7 0 342.8 0C320 0 297 0 274.2 0C251.3 0 228.7 0 205.8 0C183 0 160 0 137.2 0C114.3 0 91.7 0 68.8 0C46 0 23 0 11.5 0L0 0Z" fill="#58e9e0"></path><path d="M0 71L11.5 68.2C23 65.3 46 59.7 68.8 58C91.7 56.3 114.3 58.7 137.2 60.5C160 62.3 183 63.7 205.8 62C228.7 60.3 251.3 55.7 274.2 53.2C297 50.7 320 50.3 342.8 49.8C365.7 49.3 388.3 48.7 411.2 48.3C434 48 457 48 480 52.2C503 56.3 526 64.7 548.8 65.2C571.7 65.7 594.3 58.3 617.2 54.5C640 50.7 663 50.3 685.8 52.7C708.7 55 731.3 60 754.2 61.2C777 62.3 800 59.7 822.8 59.5C845.7 59.3 868.3 61.7 891.2 60.3C914 59 937 54 948.5 51.5L960 49L960 0L948.5 0C937 0 914 0 891.2 0C868.3 0 845.7 0 822.8 0C800 0 777 0 754.2 0C731.3 0 708.7 0 685.8 0C663 0 640 0 617.2 0C594.3 0 571.7 0 548.8 0C526 0 503 0 480 0C457 0 434 0 411.2 0C388.3 0 365.7 0 342.8 0C320 0 297 0 274.2 0C251.3 0 228.7 0 205.8 0C183 0 160 0 137.2 0C114.3 0 91.7 0 68.8 0C46 0 23 0 11.5 0L0 0Z" fill="#80e1d9"></path><path d="M0 35L11.5 37.2C23 39.3 46 43.7 68.8 45.2C91.7 46.7 114.3 45.3 137.2 46.3C160 47.3 183 50.7 205.8 51C228.7 51.3 251.3 48.7 274.2 45.5C297 42.3 320 38.7 342.8 36.8C365.7 35 388.3 35 411.2 38.3C434 41.7 457 48.3 480 51.8C503 55.3 526 55.7 548.8 52.3C571.7 49 594.3 42 617.2 42.7C640 43.3 663 51.7 685.8 54.7C708.7 57.7 731.3 55.3 754.2 50.7C777 46 800 39 822.8 38.3C845.7 37.7 868.3 43.3 891.2 43.8C914 44.3 937 39.7 948.5 37.3L960 35L960 0L948.5 0C937 0 914 0 891.2 0C868.3 0 845.7 0 822.8 0C800 0 777 0 754.2 0C731.3 0 708.7 0 685.8 0C663 0 640 0 617.2 0C594.3 0 571.7 0 548.8 0C526 0 503 0 480 0C457 0 434 0 411.2 0C388.3 0 365.7 0 342.8 0C320 0 297 0 274.2 0C251.3 0 228.7 0 205.8 0C183 0 160 0 137.2 0C114.3 0 91.7 0 68.8 0C46 0 23 0 11.5 0L0 0Z" fill="#9cd9d3"></path><path d="M0 23L11.5 25.7C23 28.3 46 33.7 68.8 33.2C91.7 32.7 114.3 26.3 137.2 26.2C160 26 183 32 205.8 35.8C228.7 39.7 251.3 41.3 274.2 39.8C297 38.3 320 33.7 342.8 32.5C365.7 31.3 388.3 33.7 411.2 32.5C434 31.3 457 26.7 480 23.8C503 21 526 20 548.8 22.7C571.7 25.3 594.3 31.7 617.2 35C640 38.3 663 38.7 685.8 37C708.7 35.3 731.3 31.7 754.2 30.8C777 30 800 32 822.8 32.5C845.7 33 868.3 32 891.2 32.8C914 33.7 937 36.3 948.5 37.7L960 39L960 0L948.5 0C937 0 914 0 891.2 0C868.3 0 845.7 0 822.8 0C800 0 777 0 754.2 0C731.3 0 708.7 0 685.8 0C663 0 640 0 617.2 0C594.3 0 571.7 0 548.8 0C526 0 503 0 480 0C457 0 434 0 411.2 0C388.3 0 365.7 0 342.8 0C320 0 297 0 274.2 0C251.3 0 228.7 0 205.8 0C183 0 160 0 137.2 0C114.3 0 91.7 0 68.8 0C46 0 23 0 11.5 0L0 0Z" fill="#b3d0cd"></path><path d="M0 19L11.5 18C23 17 46 15 68.8 14.2C91.7 13.3 114.3 13.7 137.2 12.7C160 11.7 183 9.3 205.8 11.3C228.7 13.3 251.3 19.7 274.2 21C297 22.3 320 18.7 342.8 16.8C365.7 15 388.3 15 411.2 16.2C434 17.3 457 19.7 480 19.2C503 18.7 526 15.3 548.8 13.8C571.7 12.3 594.3 12.7 617.2 12.3C640 12 663 11 685.8 10C708.7 9 731.3 8 754.2 9.2C777 10.3 800 13.7 822.8 13.5C845.7 13.3 868.3 9.7 891.2 9.2C914 8.7 937 11.3 948.5 12.7L960 14L960 0L948.5 0C937 0 914 0 891.2 0C868.3 0 845.7 0 822.8 0C800 0 777 0 754.2 0C731.3 0 708.7 0 685.8 0C663 0 640 0 617.2 0C594.3 0 571.7 0 548.8 0C526 0 503 0 480 0C457 0 434 0 411.2 0C388.3 0 365.7 0 342.8 0C320 0 297 0 274.2 0C251.3 0 228.7 0 205.8 0C183 0 160 0 137.2 0C114.3 0 91.7 0 68.8 0C46 0 23 0 11.5 0L0 0Z" fill="#c7c7c7"></path></svg>